<svg xmlns="http://www.w3.org/2000/svg" version="1.1" xmlns:xlink="http://www.w3.org/1999/xlink" xmlns:svgjs="http://svgjs.com/svgjs" width="512" height="512" x="0" y="0" viewBox="0 0 64 64" style="enable-background:new 0 0 512 512" xml:space="preserve" class=""><g><path fill="#d10e00" d="M30.372 2.052a25 25 0 0 0-16.05 42.626c3.747 4.132 11.08 11.772 15.493 16.454a3.008 3.008 0 0 0 2.177.94 2.967 2.967 0 0 0 2.176-.94c5.04-5.33 14.532-15.274 14.435-15.447A25.029 25.029 0 0 0 57 27C57.263 12.97 44.407.813 30.372 2.052z" data-original="#f44336" class=""></path><circle cx="32" cy="27" r="20" fill="#eeeeee" data-original="#eeeeee" class=""></circle><g fill="#263238"><path d="M44 21h-3v6h3a2 2 0 0 0 2-2v-2a2 2 0 0 0-2-2zM20 21a2 2 0 0 0-2 2v2a2 2 0 0 0 2 2h3v-6zM36 36v2.5a2.5 2.5 0 0 0 2.5 2.5h1a2.5 2.5 0 0 0 2.5-2.5V36zM22 36v2.5a2.5 2.5 0 0 0 2.5 2.5h1a2.5 2.5 0 0 0 2.5-2.5V36z" fill="#263238" data-original="#263238"></path></g><rect width="22" height="25" x="21" y="13" fill="#ffb300" rx="3" data-original="#ffb300" class=""></rect><path fill="#42a5f5" d="M21 17h22v13H21z" data-original="#42a5f5" class=""></path><path fill="#ffb300" d="M31 17h2v13h-2z" data-original="#ffb300" class=""></path><circle cx="26" cy="34" r="1" fill="#eeeeee" data-original="#eeeeee" class=""></circle><circle cx="38" cy="34" r="1" fill="#eeeeee" data-original="#eeeeee" class=""></circle><path fill="#263238" d="M35 35h-6a1 1 0 0 1 0-2h6a1 1 0 0 1 0 2z" data-original="#263238"></path></g></svg>